<svg width="66" height="63" viewBox="0 0 66 63" fill="none" xmlns="http://www.w3.org/2000/svg">
<g opacity="0.7" filter="url(#filter0_d)">
<path d="M43 32H23C22.4696 32 21.9609 31.7893 21.5858 31.4142C21.2107 31.0391 21 30.5304 21 30V16C21 15.4696 21.2107 14.9609 21.5858 14.5858C21.9609 14.2107 22.4696 14 23 14H26.9993L28.9993 11H36.9993L38.9993 14H43C43.5304 14 44.0391 14.2107 44.4142 14.5858C44.7893 14.9609 45 15.4696 45 16V30C45 30.5304 44.7893 31.0391 44.4142 31.4142C44.0391 31.7893 43.5304 32 43 32Z" stroke="#732DD9" stroke-linecap="round" stroke-linejoin="round"/>
<path d="M33 27C35.4853 27 37.5 24.9853 37.5 22.5C37.5 20.0147 35.4853 18 33 18C30.5147 18 28.5 20.0147 28.5 22.5C28.5 24.9853 30.5147 27 33 27Z" stroke="#732DD9" stroke-linecap="round" stroke-linejoin="round"/>
</g>
<defs>
<filter id="filter0_d" x="-3" y="-4" width="72" height="72" filterUnits="userSpaceOnUse" color-interpolation-filters="sRGB">
<feFlood flood-opacity="0" result="BackgroundImageFix"/>
<feColorMatrix in="SourceAlpha" type="matrix" values="0 0 0 0 0 0 0 0 0 0 0 0 0 0 0 0 0 0 127 0"/>
<feOffset dy="10"/>
<feGaussianBlur stdDeviation="10"/>
<feColorMatrix type="matrix" values="0 0 0 0 0 0 0 0 0 0 0 0 0 0 0 0 0 0 0.15 0"/>
<feBlend mode="normal" in2="BackgroundImageFix" result="effect1_dropShadow"/>
<feBlend mode="normal" in="SourceGraphic" in2="effect1_dropShadow" result="shape"/>
</filter>
</defs>
</svg>
